<?xml version="1.0" standalone="no"?>
<!DOCTYPE svg PUBLIC "-//W3C//DTD SVG 20010904//EN"
 "http://www.w3.org/TR/2001/REC-SVG-20010904/DTD/svg10.dtd">
<svg version="1.0" xmlns="http://www.w3.org/2000/svg"
 width="512.000000pt" height="512.000000pt" viewBox="0 0 512.000000 512.000000"
 preserveAspectRatio="xMidYMid meet">
<metadata>
Created by potrace 1.14, written by Peter Selinger 2001-2017
</metadata>
<g transform="translate(0.000000,512.000000) scale(0.100000,-0.100000)"
fill="#000000" stroke="none">
<path d="M3120 4825 c-7 -8 -15 -13 -19 -11 -4 3 -13 1 -20 -3 -9 -6 -16 -57
-23 -177 -5 -93 -13 -177 -18 -186 -15 -28 -13 -911 2 -926 37 -37 38 -27 39
446 0 274 4 485 11 527 6 39 11 112 12 163 0 50 4 92 9 92 4 0 7 9 7 20 0 18
7 20 82 20 79 0 148 -15 148 -33 0 -4 5 -5 10 -2 10 6 122 -61 128 -77 2 -4 9
-8 16 -8 21 0 176 -144 176 -164 0 -5 7 -14 15 -20 9 -7 17 -37 21 -83 6 -67
5 -73 -22 -112 -16 -22 -40 -46 -54 -53 -14 -7 -28 -18 -32 -24 -4 -6 -29 -17
-55 -24 -27 -8 -52 -19 -58 -26 -11 -13 -129 -34 -193 -34 -39 0 -52 -11 -52
-45 0 -7 90 -103 200 -213 110 -111 200 -199 200 -198 0 2 24 -20 54 -49 30
-30 56 -51 59 -48 3 2 10 -5 17 -16 6 -12 29 -30 50 -41 22 -11 40 -25 40 -30
0 -15 26 -12 39 4 9 11 3 21 -29 50 -22 20 -46 36 -52 36 -7 0 -21 9 -33 19
-229 214 -475 459 -475 472 0 5 13 9 29 9 17 0 32 4 36 10 3 5 13 6 21 3 16
-6 92 14 109 29 5 4 15 8 23 8 49 0 161 84 214 160 20 28 26 150 8 150 -5 0
-10 11 -10 24 0 14 -4 28 -10 31 -5 3 -10 15 -10 26 0 10 -5 19 -10 19 -6 0
-16 11 -22 25 -6 14 -17 25 -24 25 -8 0 -21 11 -30 25 -9 13 -24 27 -34 30
-11 3 -22 15 -25 26 -4 10 -12 19 -19 19 -7 0 -26 10 -41 23 -27 21 -55 37
-141 82 -22 11 -42 25 -46 30 -5 6 -8 6 -8 1 0 -6 -5 -5 -12 2 -18 18 -182 16
-198 -3z"/>
<path d="M980 4779 c0 -5 -5 -7 -11 -3 -6 3 -21 2 -32 -4 -12 -5 -41 -15 -64
-22 -24 -7 -43 -18 -43 -23 0 -6 -3 -8 -6 -4 -7 6 -11 4 -71 -51 -24 -21 -43
-43 -43 -50 0 -6 -9 -16 -19 -22 -11 -5 -22 -23 -26 -40 -4 -16 -11 -32 -16
-35 -11 -8 -12 -207 -1 -221 5 -5 14 -45 21 -89 7 -44 22 -98 32 -119 10 -22
19 -45 19 -52 0 -6 8 -22 18 -35 11 -13 25 -45 33 -71 7 -27 16 -48 20 -48 3
0 14 -18 24 -40 10 -22 21 -40 25 -40 4 0 14 -15 21 -32 12 -31 64 -122 82
-143 7 -10 45 -66 88 -132 12 -18 25 -33 30 -33 5 0 9 -5 9 -10 0 -6 9 -21 20
-33 11 -12 36 -41 56 -65 28 -33 43 -42 62 -40 38 4 38 24 0 49 -32 22 -146
157 -160 190 -3 9 -18 29 -32 44 -14 15 -28 37 -32 48 -4 12 -13 27 -20 35 -8
7 -14 20 -14 27 0 8 -6 18 -14 22 -7 4 -23 26 -35 48 -12 22 -33 58 -46 80
-14 22 -25 48 -25 58 0 9 -4 17 -8 17 -4 0 -16 25 -27 55 -10 30 -22 55 -26
55 -4 0 -12 19 -18 43 -23 97 -33 133 -42 149 -13 25 -23 205 -15 262 6 41 17
56 82 122 40 41 79 72 84 69 6 -4 21 0 33 8 12 7 38 17 57 21 51 11 220 22
220 15 0 -4 23 -12 50 -19 28 -7 52 -16 55 -20 3 -4 27 -13 55 -20 27 -7 50
-16 50 -21 0 -4 7 -6 15 -3 8 4 15 1 15 -5 0 -6 5 -11 11 -11 16 0 136 -58
152 -74 7 -7 28 -21 46 -30 30 -16 48 -30 96 -73 37 -33 95 -111 95 -127 0 -9
4 -16 8 -16 10 0 42 -93 42 -121 0 -11 5 -19 10 -19 14 0 13 -237 -1 -246 -6
-3 -9 -15 -6 -25 3 -11 2 -19 -2 -19 -4 0 -13 -20 -20 -45 -7 -25 -17 -45 -23
-45 -5 0 -7 -3 -4 -8 2 -4 -12 -27 -33 -50 l-36 -44 -53 64 c-28 35 -59 70
-67 79 -8 9 -15 21 -15 27 0 7 -9 17 -20 24 -11 7 -20 18 -20 24 0 10 -72 82
-130 129 -36 29 -89 45 -147 45 -42 0 -56 -5 -82 -29 l-31 -29 0 -109 c0 -60
3 -112 6 -116 3 -3 7 -27 9 -54 3 -57 40 -128 89 -171 10 -9 28 -25 38 -35 31
-29 64 -37 159 -37 70 0 91 3 95 15 3 8 24 20 46 27 22 6 45 19 51 27 7 9 25
23 41 31 26 14 30 13 40 -3 6 -10 19 -28 29 -39 9 -12 17 -25 17 -30 0 -4 7
-8 15 -8 8 0 21 -13 29 -28 8 -15 26 -34 40 -42 14 -7 26 -19 26 -25 0 -7 19
-18 43 -26 23 -7 47 -20 54 -29 9 -12 45 -15 192 -18 100 -3 181 0 181 4 0 5
17 10 37 12 20 1 39 6 43 10 3 5 13 11 23 15 21 8 22 23 2 31 -18 7 -103 -8
-115 -20 -14 -14 -309 0 -352 16 -21 8 -38 18 -38 23 0 4 -4 5 -10 2 -5 -3
-10 -1 -10 4 0 6 -6 11 -13 11 -13 0 -107 90 -107 103 0 4 -8 15 -17 25 -43
45 -56 66 -45 70 7 2 12 9 12 15 0 6 18 28 40 48 26 24 40 46 40 62 0 14 6 27
14 30 22 9 36 97 36 224 0 123 -16 243 -32 243 -5 0 -7 4 -4 9 4 5 3 11 -1 13
-5 1 -17 21 -28 43 -22 43 -25 47 -93 121 -43 47 -92 85 -161 124 -14 8 -28
18 -31 22 -3 3 -25 14 -50 24 -25 9 -49 22 -55 28 -12 13 -74 36 -98 36 -9 0
-17 5 -17 11 0 5 -5 7 -10 4 -6 -4 -16 -2 -23 3 -7 5 -38 17 -69 26 -31 9 -60
21 -63 26 -9 14 -205 13 -205 -1z m381 -751 c68 -23 133 -81 221 -198 31 -41
65 -84 76 -96 38 -40 45 -64 26 -85 -9 -10 -23 -19 -29 -19 -7 0 -15 -6 -18
-14 -11 -27 -98 -57 -170 -59 -37 -1 -67 0 -67 3 0 3 -20 14 -45 25 -25 11
-45 22 -45 25 0 4 -10 17 -22 30 -32 34 -49 109 -55 247 -4 91 -3 126 7 138
15 18 73 20 121 3z"/>
<path d="M3685 2290 c-97 -90 -158 -158 -181 -202 -8 -16 -18 -28 -22 -28 -4
0 -13 -12 -20 -27 -11 -27 -47 -82 -74 -114 -7 -8 -24 -37 -37 -63 -14 -27
-31 -50 -38 -53 -7 -3 -13 -11 -13 -19 0 -8 -4 -14 -9 -14 -5 0 -17 -23 -27
-51 -11 -28 -25 -54 -31 -56 -7 -3 -13 -12 -13 -20 0 -8 -9 -28 -20 -43 -11
-16 -20 -32 -19 -37 2 -9 -8 -39 -22 -65 -5 -10 -9 -29 -9 -43 0 -14 -5 -25
-11 -25 -6 0 -9 -6 -6 -14 3 -8 0 -20 -8 -26 -8 -6 -17 -25 -20 -41 -4 -16
-11 -29 -17 -29 -5 0 -8 -6 -5 -12 2 -7 -4 -24 -14 -37 -11 -13 -19 -29 -19
-36 0 -6 -11 -22 -24 -34 -24 -23 -25 -51 -2 -51 26 1 86 73 86 104 0 8 3 16
8 18 11 5 42 67 42 86 0 9 7 26 15 36 8 11 15 32 15 47 0 14 7 32 14 39 8 6
20 36 26 66 7 31 18 58 26 61 9 3 13 11 10 19 -3 7 2 18 10 24 8 7 14 18 14
25 0 7 7 16 15 19 9 3 15 14 13 23 -3 16 11 19 132 25 74 4 174 11 221 15 l86
9 11 -56 c7 -31 12 -71 12 -88 0 -18 5 -32 11 -32 7 0 8 -11 4 -30 -4 -18 -2
-36 4 -44 6 -7 17 -67 25 -134 7 -67 19 -129 26 -137 16 -20 40 -19 40 1 0 46
-23 212 -32 228 -5 10 -16 70 -23 133 -7 64 -18 120 -24 126 -16 16 -13 48 6
62 16 12 16 14 0 29 -9 10 -18 14 -18 9 -2 -12 -17 83 -25 160 -4 37 -10 67
-14 67 -4 0 -10 48 -13 106 -4 59 -12 113 -18 120 -13 16 -29 17 -44 4z m14
-110 c5 0 11 -50 15 -112 4 -62 10 -116 13 -121 3 -5 7 -31 9 -58 2 -27 5 -55
7 -62 1 -8 -32 -15 -118 -21 -66 -5 -122 -11 -125 -15 -3 -3 -36 -4 -74 -1
-65 5 -69 6 -53 22 9 9 17 21 17 27 0 6 11 20 24 33 13 13 29 39 35 58 6 19
26 50 43 69 18 19 41 51 52 70 10 20 27 43 37 52 11 9 19 22 19 28 0 6 7 14
16 18 9 3 28 18 42 32 l27 26 3 -22 c2 -13 7 -23 11 -23z"/>
<path d="M953 2114 c-18 -8 -16 -29 2 -44 12 -10 19 -10 27 -2 15 15 184 16
193 2 3 -5 15 -10 26 -10 27 0 113 -87 127 -129 18 -51 14 -95 -9 -125 -11
-14 -17 -26 -13 -26 4 0 -13 -15 -37 -32 l-44 -33 -164 -3 c-90 -1 -167 -5
-170 -8 -3 -3 0 -13 5 -22 10 -15 32 -17 158 -20 95 -2 146 1 146 8 0 5 14 10
31 10 39 0 79 28 124 87 30 39 35 54 35 97 -1 28 -8 67 -18 87 -21 44 -72 109
-86 109 -5 0 -23 12 -39 28 -28 26 -32 27 -155 29 -70 1 -133 0 -139 -3z"/>
<path d="M827 2063 c-4 -3 -7 -26 -7 -49 0 -24 -4 -46 -10 -49 -12 -8 -14
-531 -1 -539 4 -3 11 -35 15 -72 4 -36 14 -76 22 -89 9 -13 13 -28 10 -34 -3
-5 1 -22 9 -37 8 -16 15 -39 15 -51 0 -12 5 -25 10 -28 6 -3 10 -17 10 -30 0
-13 5 -27 10 -30 6 -3 10 -17 10 -29 0 -28 24 -50 45 -42 16 6 21 36 6 36 -5
0 -12 22 -16 50 -4 27 -11 52 -16 56 -5 3 -9 15 -9 28 0 12 -4 26 -9 31 -11
12 -41 116 -41 143 0 11 -6 22 -12 24 -20 7 -18 620 1 666 12 29 12 35 0 43
-17 10 -33 11 -42 2z"/>
<path d="M2685 1950 c-10 -11 -14 -20 -9 -20 5 0 4 -4 -1 -8 -6 -4 -28 -36
-49 -72 -22 -36 -44 -68 -50 -72 -6 -4 -7 -8 -2 -8 5 0 2 -8 -6 -17 -9 -10
-25 -40 -37 -68 -12 -27 -26 -58 -31 -67 -6 -10 -10 -25 -10 -33 0 -8 -5 -15
-11 -15 -7 0 -9 -10 -7 -25 3 -14 2 -25 -2 -25 -4 0 -10 -13 -13 -30 -10 -50
-23 -34 -41 50 -10 44 -21 80 -25 80 -4 0 -13 43 -20 97 -15 109 -28 134 -61
106 -11 -10 -20 -23 -20 -30 0 -7 -5 -13 -11 -13 -5 0 -9 -8 -8 -17 2 -18 -3
-34 -27 -90 -8 -17 -14 -36 -14 -42 0 -6 -4 -11 -10 -11 -5 0 -10 -6 -10 -13
0 -17 -30 -78 -46 -95 -7 -7 -18 -28 -25 -47 -7 -19 -16 -35 -20 -35 -3 0 -14
-20 -23 -44 -19 -49 -46 -80 -46 -53 0 9 -6 22 -14 29 -7 8 -19 32 -27 53 -7
22 -18 47 -25 55 -6 8 -18 40 -25 70 -7 30 -18 58 -24 62 -6 5 -6 8 0 8 6 0 4
4 -3 8 -7 5 -18 47 -24 95 -6 48 -14 87 -18 87 -3 0 -3 30 1 68 7 76 -6 107
-35 82 -11 -9 -16 -31 -16 -73 0 -76 21 -227 32 -227 4 0 8 -9 8 -20 0 -10 4
-29 9 -42 9 -21 22 -56 26 -68 9 -26 18 -48 26 -62 5 -10 9 -25 9 -33 0 -8 5
-15 11 -15 6 0 9 -7 5 -15 -3 -8 -1 -15 4 -15 6 0 10 -6 10 -14 0 -7 6 -19 14
-26 8 -6 13 -17 10 -24 -3 -8 1 -20 8 -27 8 -8 17 -22 21 -31 8 -23 53 -23 66
0 5 9 12 34 16 54 4 20 14 39 22 42 8 4 13 13 10 20 -3 8 1 20 9 26 8 7 14 21
14 31 0 11 5 19 10 19 6 0 10 5 10 10 0 6 15 32 33 58 18 26 41 72 52 102 10
30 25 66 32 80 12 24 13 24 13 3 0 -12 5 -25 10 -28 6 -3 10 -17 10 -30 0 -13
5 -36 12 -52 6 -15 10 -34 9 -41 -1 -8 3 -19 9 -26 5 -8 8 -21 4 -30 -3 -9 -1
-16 5 -16 6 0 11 -6 11 -13 0 -25 25 -67 43 -73 22 -7 47 12 47 36 0 10 6 20
13 23 7 3 19 31 26 63 7 33 20 66 27 75 8 9 14 20 12 25 -3 10 41 106 52 114
4 3 13 22 21 43 7 20 18 37 25 37 6 0 17 15 25 33 7 17 21 44 32 58 33 46 8
89 -28 49z"/>
</g>
</svg>
